<svg width="16" height="16" xmlns="http://www.w3.org/2000/svg">

 <g>
  <title>background</title>
  <rect fill="#ffffff" id="canvas_background" height="18" width="18" y="-1" x="-1"/>
 </g>
 <g>
  <title>Layer 1</title>
  <path id="svg_1" d="m14,0l-12,0c-1.105,0 -2,0.895 -2,2l0,9c0,1.105 0.895,2 2,2l3,0l0,2l-2,0l0,1l10,0l0,-1l-2,0l0,-2l3,0c1.105,0 2,-0.895 2,-2l0,-9c0,-1.105 -0.895,-2 -2,-2zm-4,15l-4,0l0,-2l4,0l0,2zm5,-5l-14,0l0,-8c0,-0.552 0.449,-1 1,-1l12,0c0.551,0 1,0.448 1,1l0,8z"/>
 </g>
</svg>